<?xml version="1.0" encoding="UTF-8" standalone="no"?>
<!-- Created with Inkscape (http://www.inkscape.org/) -->

<svg
   xmlns:dc="http://purl.org/dc/elements/1.1/"
   xmlns:cc="http://creativecommons.org/ns#"
   xmlns:rdf="http://www.w3.org/1999/02/22-rdf-syntax-ns#"
   xmlns:svg="http://www.w3.org/2000/svg"
   xmlns="http://www.w3.org/2000/svg"
   xmlns:sodipodi="http://sodipodi.sourceforge.net/DTD/sodipodi-0.dtd"
   xmlns:inkscape="http://www.inkscape.org/namespaces/inkscape"
   width="33.867928mm"
   height="33.867928mm"
   viewBox="0 0 120.00447 120.00447"
   id="svg2"
   version="1.1"
   inkscape:version="0.91 r13725"
   sodipodi:docname="logo.svg">
  <defs
     id="defs4" />
  <sodipodi:namedview
     id="base"
     pagecolor="#ffffff"
     bordercolor="#666666"
     borderopacity="1.0"
     inkscape:pageopacity="0.0"
     inkscape:pageshadow="2"
     inkscape:zoom="5.5094075"
     inkscape:cx="40.255753"
     inkscape:cy="64.704526"
     inkscape:document-units="px"
     inkscape:current-layer="layer1"
     showgrid="false"
     inkscape:window-width="1879"
     inkscape:window-height="1056"
     inkscape:window-x="41"
     inkscape:window-y="0"
     inkscape:window-maximized="1"
     fit-margin-top="0"
     fit-margin-left="0"
     fit-margin-right="0"
     fit-margin-bottom="0"
     showguides="true"
     inkscape:guide-bbox="true">
    <sodipodi:guide
       position="8.7290587,73.15842"
       orientation="1,0"
       id="guide4143" />
    <sodipodi:guide
       position="0.64330236,103.83296"
       orientation="0,1"
       id="guide4145" />
    <sodipodi:guide
       position="11.937692,22.333665"
       orientation="0,1"
       id="guide4147" />
    <sodipodi:guide
       position="112.81713,64.302591"
       orientation="1,0"
       id="guide4149" />
  </sodipodi:namedview>
  <metadata
     id="metadata7">
    <rdf:RDF>
      <cc:Work
         rdf:about="">
        <dc:format>image/svg+xml</dc:format>
        <dc:type
           rdf:resource="http://purl.org/dc/dcmitype/StillImage" />
        <dc:title></dc:title>
      </cc:Work>
    </rdf:RDF>
  </metadata>
  <g
     inkscape:label="Layer 1"
     inkscape:groupmode="layer"
     id="layer1"
     transform="translate(-148.37738,-159.83789)">
    <circle
       style="opacity:1;fill:#ffffff;fill-opacity:1;stroke:none;stroke-width:2.5;stroke-linecap:round;stroke-linejoin:round;stroke-miterlimit:4;stroke-dasharray:none;stroke-dashoffset:0;stroke-opacity:0.31868137"
       id="path4151"
       cx="208.37961"
       cy="219.84012"
       r="60.002232" />
    <path
       style="opacity:1;fill:#000000;fill-opacity:1;stroke:#ffffff;stroke-width:0;stroke-linecap:round;stroke-linejoin:miter;stroke-miterlimit:4;stroke-dasharray:none;stroke-dashoffset:0;stroke-opacity:0.94509804"
       d="m 176.99023,218.02734 c -1.75221,0.0302 -3.37848,0.29191 -4.5957,1.90625 l -14.79101,19.61719 c -2.23641,2.96605 1.86034,8.36728 6.9707,8.36328 l 89.19726,-0.0625 c 6.76984,-0.005 8.17408,-6.39419 6.55664,-8.55078 l -13.27148,-17.69531 c -1.61745,-2.1566 -5.3802,-3.57635 -7.78711,-3.57617 l -60.49609,0.004 c -0.60173,5e-5 -1.19913,-0.0159 -1.78321,-0.006 z m 63.3711,6.58789 12.16601,16.22071 -86.8789,-0.12305 11.30468,-15.97461 63.40821,-0.12305 z"
       id="rect3347"
       inkscape:connector-curvature="0" />
    <path
       style="fill:#000000;fill-opacity:1;fill-rule:evenodd;stroke:none;stroke-width:1px;stroke-linecap:butt;stroke-linejoin:miter;stroke-opacity:1"
       d="m 217.16016,176.02539 c -2.11393,0.0428 -4.20735,0.29609 -6.07422,0.77734 -1.98923,0.51279 -2.03229,1.14118 -1.7168,2.32618 1.26674,4.75799 2.75748,7.19463 4.20508,9.71289 -2.76508,0.2778 -5.51648,0.61497 -8.2461,1.00586 0.81144,-3.38835 1.41007,-6.68893 1.31836,-8.72266 -0.14745,-3.2697 -3.28834,-2.88967 -5.10546,-2.58594 -4.30168,0.71902 -10.97942,3.65204 -14.91407,6.70508 -1.62297,1.25935 -2.17587,2.32356 -1.53515,3.36914 1.43685,2.34479 4.49493,5.07602 7.64453,7.4375 -0.6704,0.95239 -1.24822,1.95408 -1.69922,2.95313 -4.61016,10.2123 -2.79016,29.60066 -2.08789,39.56836 0,0 11.39963,-0.29804 11.98047,0.54492 1.47001,2.13338 0.13943,12.969 1.68554,14.68554 4.81802,5.34912 10.52924,3.87975 12.83399,-0.34765 1.40201,-2.57158 2.25427,-5.69296 1.27344,-8.82813 -0.68429,-2.18731 -0.96791,-4.01086 -2.11133,-6.05468 0,0 4.97902,-0.20683 5.37695,0.45312 2.70538,4.48681 -0.20587,11.92972 2.26758,15.06641 3.79881,4.81743 10.41193,3.64462 12.97852,-0.63672 2.47932,-4.13579 0.70214,-13.13942 0.18164,-15.06446 1.82638,-1.02538 4.31444,-3.80064 2.35937,-8.62109 -1.35986,-3.35289 -6.83957,-6.11055 -10.11914,-8.30469 5.10027,-2.1332 13.46299,-4.84599 17.92383,-8.66601 7.73104,-6.62043 10.01829,-14.23617 7.35156,-21.23633 -0.8389,-2.20212 -3.81902,-3.3181 -6.17187,-3.44922 -7.76159,-0.43255 -15.94038,-0.44106 -24.16016,0.0195 2.85052,-2.72596 4.28464,-5.05352 5.375,-7.73437 0.3517,-0.86472 0.69991,-2.2478 -1.02149,-2.9043 -2.68855,-1.02536 -6.26976,-1.54 -9.79296,-1.46875 z"
       id="path4222"
       inkscape:connector-curvature="0" />
    <path
       style="opacity:1;fill:#ffffff;fill-opacity:1;stroke:#ffffff;stroke-width:0;stroke-linecap:round;stroke-linejoin:miter;stroke-miterlimit:4;stroke-dasharray:none;stroke-dashoffset:0;stroke-opacity:0.94509804"
       d="m 250.86611,228.42802 a 2.914881,1.9442882 52.655153 0 1 0.42547,3.56 2.914881,1.9442882 52.655153 0 1 -3.294,-0.92115 2.914881,1.9442882 52.655153 0 1 -0.42547,-3.56 2.914881,1.9442882 52.655153 0 1 3.294,0.92115 z"
       id="path4150"
       inkscape:connector-curvature="0" />
    <path
       style="color:#000000;font-style:normal;font-variant:normal;font-weight:normal;font-stretch:normal;font-size:medium;line-height:normal;font-family:sans-serif;text-indent:0;text-align:start;text-decoration:none;text-decoration-line:none;text-decoration-style:solid;text-decoration-color:#000000;letter-spacing:normal;word-spacing:normal;text-transform:none;direction:ltr;block-progression:tb;writing-mode:lr-tb;baseline-shift:baseline;text-anchor:start;white-space:normal;clip-rule:nonzero;display:inline;overflow:visible;visibility:visible;opacity:1;isolation:auto;mix-blend-mode:normal;color-interpolation:sRGB;color-interpolation-filters:linearRGB;solid-color:#000000;solid-opacity:1;fill:#000000;fill-opacity:1;fill-rule:evenodd;stroke:none;stroke-width:2.5;stroke-linecap:round;stroke-linejoin:round;stroke-miterlimit:4;stroke-dasharray:none;stroke-dashoffset:0;stroke-opacity:1;color-rendering:auto;image-rendering:auto;shape-rendering:auto;text-rendering:auto;enable-background:accumulate"
       d="m 159.68945,207.00586 a 1.250125,1.250125 0 0 0 -1.17383,1.06055 c -0.93539,5.61233 1.4994,10.21208 5.01172,12.33398 a 1.250125,1.250125 0 1 0 1.29297,-2.13867 c -2.58454,-1.5614 -4.62288,-5.07523 -3.83789,-9.78516 a 1.250125,1.250125 0 0 0 -1.29297,-1.4707 z"
       id="path4156"
       inkscape:connector-curvature="0" />
    <path
       style="color:#000000;font-style:normal;font-variant:normal;font-weight:normal;font-stretch:normal;font-size:medium;line-height:normal;font-family:sans-serif;text-indent:0;text-align:start;text-decoration:none;text-decoration-line:none;text-decoration-style:solid;text-decoration-color:#000000;letter-spacing:normal;word-spacing:normal;text-transform:none;direction:ltr;block-progression:tb;writing-mode:lr-tb;baseline-shift:baseline;text-anchor:start;white-space:normal;clip-rule:nonzero;display:inline;overflow:visible;visibility:visible;opacity:1;isolation:auto;mix-blend-mode:normal;color-interpolation:sRGB;color-interpolation-filters:linearRGB;solid-color:#000000;solid-opacity:1;fill:#000000;fill-opacity:1;fill-rule:evenodd;stroke:none;stroke-width:2.5;stroke-linecap:round;stroke-linejoin:round;stroke-miterlimit:4;stroke-dasharray:none;stroke-dashoffset:0;stroke-opacity:1;color-rendering:auto;image-rendering:auto;shape-rendering:auto;text-rendering:auto;enable-background:accumulate"
       d="m 165.08008,208.04883 a 1.250125,1.250125 0 0 0 -1.18946,0.88476 c -1.03075,3.22463 0.26617,6.75458 2.78516,8.28907 a 1.250125,1.250125 0 1 0 1.30078,-2.13477 c -1.21827,-0.74213 -2.34932,-3.37714 -1.70508,-5.39258 a 1.250125,1.250125 0 0 0 -1.1914,-1.64648 z"
       id="path4158"
       inkscape:connector-curvature="0" />
    <path
       style="color:#000000;font-style:normal;font-variant:normal;font-weight:normal;font-stretch:normal;font-size:medium;line-height:normal;font-family:sans-serif;text-indent:0;text-align:start;text-decoration:none;text-decoration-line:none;text-decoration-style:solid;text-decoration-color:#000000;letter-spacing:normal;word-spacing:normal;text-transform:none;direction:ltr;block-progression:tb;writing-mode:lr-tb;baseline-shift:baseline;text-anchor:start;white-space:normal;clip-rule:nonzero;display:inline;overflow:visible;visibility:visible;opacity:1;isolation:auto;mix-blend-mode:normal;color-interpolation:sRGB;color-interpolation-filters:linearRGB;solid-color:#000000;solid-opacity:1;fill:#000000;fill-opacity:1;fill-rule:evenodd;stroke:none;stroke-width:2.5;stroke-linecap:round;stroke-linejoin:round;stroke-miterlimit:4;stroke-dasharray:none;stroke-dashoffset:0;stroke-opacity:1;color-rendering:auto;image-rendering:auto;shape-rendering:auto;text-rendering:auto;enable-background:accumulate"
       d="m 178.64062,199.73828 a 1.250125,1.250125 0 0 0 -0.50585,2.37695 c 2.70617,1.33956 5.03053,4.67058 4.64257,9.42969 a 1.250125,1.250125 0 1 0 2.49024,0.20313 c 0.46228,-5.67095 -2.34777,-10.05263 -6.02539,-11.87305 a 1.250125,1.250125 0 0 0 -0.60157,-0.13672 z"
       id="path4160"
       inkscape:connector-curvature="0" />
    <path
       style="color:#000000;font-style:normal;font-variant:normal;font-weight:normal;font-stretch:normal;font-size:medium;line-height:normal;font-family:sans-serif;text-indent:0;text-align:start;text-decoration:none;text-decoration-line:none;text-decoration-style:solid;text-decoration-color:#000000;letter-spacing:normal;word-spacing:normal;text-transform:none;direction:ltr;block-progression:tb;writing-mode:lr-tb;baseline-shift:baseline;text-anchor:start;white-space:normal;clip-rule:nonzero;display:inline;overflow:visible;visibility:visible;opacity:1;isolation:auto;mix-blend-mode:normal;color-interpolation:sRGB;color-interpolation-filters:linearRGB;solid-color:#000000;solid-opacity:1;fill:#000000;fill-opacity:1;fill-rule:evenodd;stroke:none;stroke-width:2.5;stroke-linecap:round;stroke-linejoin:round;stroke-miterlimit:4;stroke-dasharray:none;stroke-dashoffset:0;stroke-opacity:1;color-rendering:auto;image-rendering:auto;shape-rendering:auto;text-rendering:auto;enable-background:accumulate"
       d="m 175.64844,203.58398 a 1.250125,1.250125 0 0 0 -0.52735,2.37305 c 1.2728,0.64414 2.60893,3.18042 2.125,5.24024 a 1.250125,1.250125 0 1 0 2.4336,0.57226 c 0.77427,-3.29563 -0.79795,-6.7111 -3.42969,-8.04297 a 1.250125,1.250125 0 0 0 -0.60156,-0.14258 z"
       id="path4162"
       inkscape:connector-curvature="0" />
    <path
       style="fill:#000000;fill-opacity:1;fill-rule:evenodd;stroke:none;stroke-width:1px;stroke-linecap:butt;stroke-linejoin:miter;stroke-opacity:1"
       d="m 171.5248,208.98658 c 3.52545,-1.45292 15.33739,29.495 15.33739,29.495 l -9.84679,-0.0908 c 0,0 -9.01605,-27.95133 -5.4906,-29.40425 z"
       id="path4178"
       inkscape:connector-curvature="0"
       sodipodi:nodetypes="zccz" />
    <path
       style="fill:#ffffff;fill-opacity:1;fill-rule:evenodd;stroke:none;stroke-width:1px;stroke-linecap:butt;stroke-linejoin:miter;stroke-opacity:1"
       d="m 234.70117,190.07617 c -9.91523,-0.005 -20.50521,0.64698 -29.99805,2.26563 -1.05831,3.97807 -2.27044,7.68483 -2.88867,9.1582 -1.24538,-0.32571 -4.12065,-1.95546 -7.18164,-4.08008 -0.76789,0.90166 -1.39449,1.93311 -1.78125,3.12696 -2.80331,8.65328 -2.96682,25.31925 -1.54297,35.80273 0,0 9.4988,-0.44866 10.98243,0.99805 2.36973,2.31076 1.50257,8.94236 1.45117,12.16015 -0.0285,1.78183 0.90895,3.37671 2.22851,4.43946 0.40727,-1.29992 0.68192,-2.84529 0.59571,-4.33399 -0.037,-0.6382 0.39903,-1.07499 0.88867,-1.11719 0.48964,-0.0422 1.03306,0.31009 1.21289,1.24805 0.32686,1.70483 -0.1677,3.76227 -0.91992,5.20508 0.51641,0.18578 1.04586,0.29765 1.57617,0.31445 0.69752,-1.43486 1.26611,-3.68769 1.14453,-5.78711 -0.037,-0.6382 0.39903,-1.075 0.88867,-1.11718 0.48964,-0.0422 1.03306,0.31008 1.21289,1.24804 0.3102,1.61794 -0.1176,3.55706 -0.80469,4.98438 1.05179,-0.70922 1.90858,-2.00084 2.32227,-4.03907 0.97463,-4.80186 0.0178,-9.21345 -4.26562,-14.06835 0,-10e-6 9.88195,-0.46045 11.79882,0.9082 2.22189,1.58642 1.3351,9.18248 1.9961,13.47656 0.20837,1.35369 0.94971,2.49082 1.93945,3.26953 0.44549,-1.33818 0.74908,-2.97956 0.6582,-4.54883 -0.037,-0.6382 0.39904,-1.07303 0.88868,-1.11523 0.48964,-0.0422 1.03306,0.30813 1.21289,1.24609 0.33656,1.75544 -0.19621,3.88747 -0.98633,5.33399 0.67869,0.18996 1.39269,0.20853 2.0957,0.0703 0.64522,-1.43921 1.14824,-3.57025 1.0332,-5.55664 -0.0739,-1.27641 1.73995,-1.74507 2.09961,0.13086 0.21596,1.12641 0.0696,2.40607 -0.26757,3.56445 0.50076,-0.65782 0.93582,-1.48985 1.26367,-2.53125 1.12796,-3.58296 0.57695,-7.74061 -0.58985,-11.25195 -5.89549,1.58355 -9.52663,-1.02758 -10.70898,-3.08594 -1.32145,-2.30053 -3.81813,-4.59972 -6.5332,-5.03711 -3.65547,-0.58889 -7.85138,1.38055 -10.48243,3.67578 -3.04738,-2.83192 -4.46085,-8.25181 -4.85546,-12.79687 -0.4516,-5.20143 0.92623,-9.13237 2.94921,-15.38281 0.3017,6.06521 3.6741,11.96256 8.75782,12.66015 7.6581,1.05084 19.57691,-0.97527 26.54492,-5.08203 2.4169,-1.42446 4.99904,-3.31162 7.20898,-5.50195 0.31646,-1.36609 0.97672,-3.75396 0.17188,-6.4336 -3.17492,2.26609 -9.15644,5.55059 -12.5,2.38086 -2.17047,-2.05762 1.24667,-7.36143 3.86914,-9.94336 1.12679,-1.10937 3.55502,-3.28234 6.20508,-4.66992 -2.86943,-0.11629 -5.84122,-0.18588 -8.89063,-0.1875 z m -12.74219,2.44922 c 1.55692,-0.0743 3.41746,0.55689 5.1875,2.5 0.49324,0.54147 -0.49283,1.75326 -1.18945,1.19727 -1.22794,-0.98004 -3.77977,-2.70144 -5.04687,-1.70899 -1.20571,0.94438 -0.56673,1.90434 0.46093,3.07031 0.38957,0.44201 -0.36109,2.06852 -1.32031,1.17579 -2.00749,-1.86834 -2.18335,-4.33719 -0.48242,-5.47071 0.63041,-0.42012 1.45648,-0.71907 2.39062,-0.76367 z m -11.60937,1.19922 c 2.87488,-0.0693 6.4408,1.79477 8.04883,6.05078 1.74834,4.62738 -0.0224,7.68326 -2.97071,9.21094 -2.27691,1.1798 -6.55517,0.306 -9.28125,-4.17383 -2.13257,-3.50449 -1.80047,-8.25986 1.65625,-10.39258 0.7065,-0.43589 1.58858,-0.67223 2.54688,-0.69531 z m 1.42969,2.79687 c -0.81829,0.0402 -1.48522,0.48057 -2.22071,0.97071 -1.70093,1.13352 -2.296,3.31556 -0.83398,6.5957 0.53347,1.19686 1.80741,-0.34677 1.57617,-0.88867 -0.86723,-2.03231 -0.92836,-3.47359 0.27734,-4.41797 1.2671,-0.99245 3.11029,0.60453 4.3418,1.58008 0.98539,0.7806 1.73717,-0.74234 1.2207,-1.26172 -2.00815,-2.01953 -3.30924,-2.62974 -4.36132,-2.57813 z m 39.58008,0.69141 c -0.96075,1.47961 -2.32201,2.80638 -3.4668,3.81641 0.65823,1.64728 0.83367,3.17436 0.82226,4.53515 1.8091,-2.58211 2.89991,-5.42356 2.64454,-8.35156 z"
       id="path4224"
       inkscape:connector-curvature="0" />
    <path
       style="fill:#ffffff;fill-opacity:1;fill-rule:evenodd;stroke:none;stroke-width:1px;stroke-linecap:butt;stroke-linejoin:miter;stroke-opacity:1"
       d="m 225.06957,224.687 c 6.90319,-0.0397 11.02849,5.24931 11.16273,7.98634 0.2497,5.09117 -9.55076,6.52112 -11.25348,3.26714 -2.94264,-5.62354 -6.98652,-7.02322 -11.88876,-6.98805 1.18916,-1.82909 5.13289,-3.59625 6.8973,-3.35789 6.37989,0.86187 8.68339,4.97211 9.98292,7.35106 0.89619,1.64059 3.02096,0.96292 2.26885,-0.72603 -1.03602,-2.32649 -2.54701,-4.67948 -7.16956,-7.53257 z"
       id="path4220"
       inkscape:connector-curvature="0"
       sodipodi:nodetypes="csscsssc" />
  </g>
</svg>
